<svg xmlns="http://www.w3.org/2000/svg" width="122" height="40" fill="none"><g clip-path="url(#a)"><mask id="b" width="35" height="35" x="0" y="3" maskUnits="userSpaceOnUse" style="mask-type:alpha"><path fill="#fff" d="M26.204 3.753C24.244 3.297 21.022 3 17.379 3c-3.643 0-6.865.297-8.825.753-3.909.826-6.986 3.925-7.806 7.86C.295 13.587 0 16.832 0 20.5s.295 6.913.748 8.887c.82 3.935 3.897 7.034 7.806 7.86 1.96.456 5.182.753 8.825.753 3.643 0 6.865-.297 8.825-.753 3.908-.826 6.986-3.925 7.806-7.86.453-1.974.748-5.219.748-8.887s-.295-6.913-.748-8.887c-.82-3.935-3.898-7.034-7.806-7.86Z"/></mask><g mask="url(#b)"><path fill="#00B388" d="M26.204 3.753C24.244 3.297 21.022 3 17.379 3c-3.643 0-6.865.297-8.825.753-3.909.826-6.986 3.925-7.806 7.86C.295 13.587 0 16.832 0 20.5s.295 6.913.748 8.887c.82 3.935 3.897 7.034 7.806 7.86 1.96.456 5.182.753 8.825.753 3.643 0 6.865-.297 8.825-.753 3.908-.826 6.986-3.925 7.806-7.86.453-1.974.748-5.219.748-8.887s-.295-6.913-.748-8.887c-.82-3.935-3.898-7.034-7.806-7.86Z"/><path fill="#fff" d="M21.555 29.867a2.637 2.637 0 0 0-1.882-1.566c-.51-.118-1.347-.196-2.294-.196-.947 0-1.785.078-2.295.196a2.637 2.637 0 0 0-1.874 1.549.676.676 0 0 1-.684.41 20.274 20.274 0 0 1-.188-.018c-1.363-.137-2.434-.328-3.056-.55l-.004-.002a1.11 1.11 0 0 1-.708-1.183c.107-1.428.968-4.772 2.255-8.589 1.47-4.363 3.009-7.896 3.702-8.585a1.49 1.49 0 0 1 .588-.379l.006-.002c.456-.155 1.296-.26 2.257-.26.963 0 1.803.105 2.258.26l.007.002a1.49 1.49 0 0 1 .586.378l.001.001c.694.69 2.232 4.222 3.703 8.585 1.287 3.817 2.148 7.16 2.254 8.589a.51.51 0 0 0 .003.036v.014a4.536 4.536 0 0 1 .005.094 1.11 1.11 0 0 1-.719 1.04c-.622.223-1.692.414-3.053.55l-.214.02a.645.645 0 0 1-.654-.394Z"/></g><path fill="#fff" fill-rule="evenodd" d="M55.828 14.66h3.321v14.595h-3.321v-2.564c-1.038 1.819-2.818 2.862-5.13 2.862-3.856 0-6.94-3.4-6.94-7.604 0-4.204 3.084-7.574 6.94-7.574 2.313 0 4.092 1.044 5.13 2.863V14.66Zm49.727 0h3.322v14.595h-3.322v-2.564c-1.038 1.819-2.817 2.862-5.13 2.862-3.856 0-6.94-3.4-6.94-7.604 0-4.204 3.084-7.574 6.94-7.574 2.313 0 4.092 1.044 5.13 2.863V14.66ZM51.483 26.381c2.521 0 4.419-1.908 4.419-4.443 0-2.505-1.898-4.413-4.419-4.413a4.398 4.398 0 0 0-4.418 4.413c0 2.475 1.957 4.444 4.418 4.444Zm49.553 0c2.521 0 4.419-1.908 4.419-4.443 0-2.505-1.898-4.413-4.419-4.413a4.398 4.398 0 0 0-4.418 4.413c0 2.475 1.957 4.444 4.418 4.444ZM64.122 7.375c1.157 0 2.135.984 2.135 2.117a2.151 2.151 0 0 1-2.135 2.147c-1.156 0-2.105-.954-2.105-2.147 0-1.133.949-2.117 2.105-2.117Zm-1.63 7.245h3.291v14.595h-3.292V14.62Zm13.631-.285c.634 0 1.245.095 1.685.263.26.099.488.208.665.3l-1.34 2.82a4.62 4.62 0 0 0-1.336-.192c-1.602 0-3.38 1.341-3.38 3.906v7.783h-3.293V14.62h3.292v2.1c.653-1.401 2.284-2.385 3.707-2.385Zm16.533 11.182c-1.098 2.416-3.648 3.996-6.673 3.996-4.3 0-7.592-3.25-7.592-7.574s3.262-7.604 7.563-7.604c2.817 0 5.19 1.401 6.257 3.548l-2.788 1.58c-.593-1.162-1.898-1.937-3.47-1.937-2.49 0-4.3 1.908-4.3 4.413 0 2.475 1.839 4.384 4.33 4.384 1.69 0 3.084-.806 3.737-2.148l2.936 1.342ZM115.51 7.375v21.84h-3.292V7.375h3.292Zm6.633 0v21.84h-3.292V7.375h3.292Z" clip-rule="evenodd"/></g><defs><clipPath id="a"><path fill="#fff" d="M0 3h122v35H0z"/></clipPath></defs></svg>