<svg xmlns="http://www.w3.org/2000/svg" width="131" height="36" fill="none"><path fill="#fff" d="M87.696 12.864c-1.251 0-2.282.98-2.282 2.187v12.897H69.957l-1.914-3.545-3.312-5.882V8.49c0-1.207-1.03-2.187-2.282-2.187H51.262c-1.252 0-2.282.98-2.282 2.187v19.533h-2.135l-5.225-9.428V8.49c0-1.207-1.031-2.187-2.282-2.187H28.15c-1.251 0-2.282.98-2.282 2.187v19.533h-3.533L17.403 7.961c-.22-.98-1.177-1.658-2.208-1.658h-6.11c-1.03 0-1.913.678-2.208 1.658L1.504 30.06c-.294 1.206.442 2.413 1.693 2.639h.884c.883-.15 1.619-.754 1.84-1.659l5.005-20.439h2.576l4.858 20.137c.22.981 1.178 1.735 2.209 1.735h7.58c1.252 0 2.282-.98 2.282-2.187v-19.61h6.772v8.448c0 .377.073.754.295 1.055l6.108 11.087c.369.679 1.178 1.131 1.988 1.131h5.741c1.252 0 2.282-.98 2.282-2.187V10.677h6.772v8.447c0 .377.073.754.294 1.055l6.109 11.087c.294.528.81.905 1.399 1.056.22.075.368.075.588.075h19.064c1.251 0 2.282-.98 2.282-2.187V15.126c-.148-1.282-1.177-2.262-2.429-2.262Z"/><path fill="#fff" d="M127.295 5.925c-1.251-.226-2.429.528-2.649 1.735l-4.048 20.363h-1.178l-3.901-19.986c-.221-1.056-1.104-1.81-2.209-1.81h-4.268c-1.105 0-1.988.754-2.208 1.81l-3.976 19.91h-1.177l-3.975-19.91c-.22-1.056-1.104-1.81-2.208-1.81H74.005c-1.251 0-2.281.98-2.281 2.187v15.084c0 1.206 1.03 2.187 2.281 2.187 1.252 0 2.282-.98 2.282-2.187V10.677h17.371v.075l3.9 19.91c.222 1.057 1.105 1.81 2.209 1.81h4.931c1.105 0 1.988-.753 2.209-1.81l3.975-19.91h.588l3.975 19.91c.221 1.057 1.104 1.81 2.208 1.81h4.931c1.105 0 1.988-.753 2.209-1.81l3.975-20.664V6.906a1.905 1.905 0 0 0-1.473-.98Z"/></svg>