<svg xmlns="http://www.w3.org/2000/svg" width="140" height="36" fill="none"><mask id="a" width="140" height="36" x="0" y="0" maskUnits="userSpaceOnUse" style="mask-type:alpha"><path fill="#fff" d="M37.58 12.37V9.329h3.754v3.043H37.58Zm0 14.3V13.714h3.754V26.67H37.58Zm6.336.001V9.31h3.753V26.67h-3.753Zm6.334 0V9.31h3.753V26.67h-3.754Zm32.188-8.257v8.257h-3.752v-7.4c0-1.807-.645-2.785-2.21-2.785-1.48 0-2.428.879-2.428 2.787v7.398h-3.753V13.713h3.543v1.654h.283c.82-1.385 2.106-2.06 3.849-2.06 2.936 0 4.468 1.965 4.468 5.107Zm14.437 0v8.257h-3.753v-7.4c0-1.807-.645-2.785-2.21-2.785-1.479 0-2.427.879-2.427 2.787v7.398h-3.753V13.713h3.543v1.654h.282c.82-1.385 2.106-2.06 3.85-2.06 2.937 0 4.468 1.965 4.468 5.107Zm2.295-6.218V9.328h3.753v2.868H99.17Zm0 14.474V13.714h3.753V26.67H99.17Zm18.19-12.956v12.957h-3.512v-1.907h-.262c-.784 1.611-2.08 2.313-3.959 2.313-2.891 0-4.41-1.975-4.41-5.106v-8.257h3.752v7.398c0 1.913.763 2.787 2.293 2.787 1.499 0 2.345-1.05 2.345-2.724v-7.46h3.753ZM140 18.426v8.245h-3.753v-7.418c0-1.156-.322-2.766-2.149-2.766-1.515 0-2.395.824-2.395 2.781v7.403h-3.754v-7.418c0-1.867-.695-2.766-2.161-2.766-1.477 0-2.384.76-2.384 2.713v7.471h-3.752V13.714h3.542v1.653h.281c.81-1.377 2.053-2.06 3.696-2.06 1.92 0 3.281.785 3.922 2.06h.663c.868-1.461 2.187-2.06 3.829-2.06 2.876 0 4.415 2.029 4.415 5.119ZM3.827 32.066h27.347V3.934H3.827v28.13ZM0 0h35v36H0V0Zm59.63 18.772h5.274c-.171-1.365-1.097-2.317-2.599-2.317-1.484 0-2.403.978-2.675 2.317Zm9.035 3.946c-.461 2.678-2.798 4.36-6.166 4.36-4.05 0-6.759-2.473-6.759-6.858v-.08c0-4.317 2.678-6.834 6.56-6.834 3.875 0 6.272 2.445 6.272 6.639 0 .432-.02.864-.06 1.378h-8.925c.205 1.614 1.17 2.615 2.934 2.615 1.126 0 1.907-.377 2.295-1.22h3.849Zm-49.94.608c.818 0 1.46-.153 1.926-.458.465-.306.699-.78.699-1.425v-.05c0-.577-.217-1.035-.651-1.375-.433-.338-1.132-.507-2.096-.507h-4.287v3.815h4.409Zm-.988-6.987c.817 0 1.47-.144 1.951-.433.481-.288.723-.755.723-1.4v-.05c0-.577-.21-1.018-.627-1.323-.418-.307-1.02-.46-1.806-.46h-3.662v3.666h3.42Zm-7.19-7.011h7.97c1.94 0 3.407.512 4.4 1.537.77.793 1.155 1.776 1.155 2.948v.05c0 .496-.06.933-.179 1.312-.121.38-.28.723-.48 1.027-.199.308-.43.575-.694.808-.263.23-.546.427-.849.593.974.381 1.742.897 2.3 1.548.56.653.84 1.556.84 2.713v.05c0 .792-.147 1.486-.444 2.08a4.012 4.012 0 0 1-1.275 1.487c-.553.397-1.217.695-1.995.893-.778.198-1.64.297-2.585.297h-8.163V9.328Z"/></mask><g mask="url(#a)"><path fill="#fff" d="M37.58 12.37V9.329h3.754v3.043H37.58Zm0 14.3V13.714h3.754V26.67H37.58Zm6.336.001V9.31h3.753V26.67h-3.753Zm6.334 0V9.31h3.753V26.67h-3.754Zm32.188-8.257v8.257h-3.752v-7.4c0-1.807-.645-2.785-2.21-2.785-1.48 0-2.428.879-2.428 2.787v7.398h-3.753V13.713h3.543v1.654h.283c.82-1.385 2.106-2.06 3.849-2.06 2.936 0 4.468 1.965 4.468 5.107Zm14.437 0v8.257h-3.753v-7.4c0-1.807-.645-2.785-2.21-2.785-1.479 0-2.427.879-2.427 2.787v7.398h-3.753V13.713h3.543v1.654h.282c.82-1.385 2.106-2.06 3.85-2.06 2.937 0 4.468 1.965 4.468 5.107Zm2.295-6.218V9.328h3.753v2.868H99.17Zm0 14.474V13.714h3.753V26.67H99.17Zm18.19-12.956v12.957h-3.512v-1.907h-.262c-.784 1.611-2.08 2.313-3.959 2.313-2.891 0-4.41-1.975-4.41-5.106v-8.257h3.752v7.398c0 1.913.763 2.787 2.293 2.787 1.499 0 2.345-1.05 2.345-2.724v-7.46h3.753ZM140 18.426v8.245h-3.753v-7.418c0-1.156-.322-2.766-2.149-2.766-1.515 0-2.395.824-2.395 2.781v7.403h-3.754v-7.418c0-1.867-.695-2.766-2.161-2.766-1.477 0-2.384.76-2.384 2.713v7.471h-3.752V13.714h3.542v1.653h.281c.81-1.377 2.053-2.06 3.696-2.06 1.92 0 3.281.785 3.922 2.06h.663c.868-1.461 2.187-2.06 3.829-2.06 2.876 0 4.415 2.029 4.415 5.119ZM3.827 32.066h27.347V3.934H3.827v28.13ZM0 0h35v36H0V0Zm59.63 18.772h5.274c-.171-1.365-1.097-2.317-2.599-2.317-1.484 0-2.403.978-2.675 2.317Zm9.035 3.946c-.461 2.678-2.798 4.36-6.166 4.36-4.05 0-6.759-2.473-6.759-6.858v-.08c0-4.317 2.678-6.834 6.56-6.834 3.875 0 6.272 2.445 6.272 6.639 0 .432-.02.864-.06 1.378h-8.925c.205 1.614 1.17 2.615 2.934 2.615 1.126 0 1.907-.377 2.295-1.22h3.849Zm-49.94.608c.818 0 1.46-.153 1.926-.458.465-.306.699-.78.699-1.425v-.05c0-.577-.217-1.035-.651-1.375-.433-.338-1.132-.507-2.096-.507h-4.287v3.815h4.409Zm-.988-6.987c.817 0 1.47-.144 1.951-.433.481-.288.723-.755.723-1.4v-.05c0-.577-.21-1.018-.627-1.323-.418-.307-1.02-.46-1.806-.46h-3.662v3.666h3.42Zm-7.19-7.011h7.97c1.94 0 3.407.512 4.4 1.537.77.793 1.155 1.776 1.155 2.948v.05c0 .496-.06.933-.179 1.312-.121.38-.28.723-.48 1.027-.199.308-.43.575-.694.808-.263.23-.546.427-.849.593.974.381 1.742.897 2.3 1.548.56.653.84 1.556.84 2.713v.05c0 .792-.147 1.486-.444 2.08a4.012 4.012 0 0 1-1.275 1.487c-.553.397-1.217.695-1.995.893-.778.198-1.64.297-2.585.297h-8.163V9.328Z"/></g></svg>