<svg xmlns="http://www.w3.org/2000/svg" width="122" height="40" fill="none"><g clip-path="url(#a)"><path fill="#fff" fill-rule="evenodd" d="M20.145 15.011c1.52 1.232 2.468 2.903 2.84 5.014h-3.952a4.222 4.222 0 0 0-1.584-2.667c-.837-.643-1.888-.963-3.153-.962a4.735 4.735 0 0 0-3.591 1.518c-.96 1.013-1.44 2.5-1.438 4.46.001 1.96.48 3.45 1.438 4.473a4.711 4.711 0 0 0 3.59 1.536c1.266 0 2.317-.327 3.154-.98a4.29 4.29 0 0 0 1.584-2.678h3.951c-.368 2.112-1.315 3.79-2.84 5.031-1.524 1.241-3.45 1.861-5.777 1.86a9.4 9.4 0 0 1-4.623-1.111 7.9 7.9 0 0 1-3.153-3.202c-.764-1.38-1.147-3.02-1.147-4.92 0-1.901.381-3.534 1.143-4.9A7.9 7.9 0 0 1 9.74 14.28a9.402 9.402 0 0 1 4.622-1.11c2.33 0 4.257.613 5.783 1.841ZM49.9 7.234v24.164h-3.722V7.234H49.9Zm16.987 7.055a7.98 7.98 0 0 1 3.266 3.202c.785 1.393 1.177 3.026 1.176 4.9-.002 1.875-.393 3.518-1.176 4.932a7.98 7.98 0 0 1-3.266 3.202 9.875 9.875 0 0 1-4.705 1.111 9.777 9.777 0 0 1-4.686-1.111 8.084 8.084 0 0 1-3.267-3.218c-.796-1.404-1.193-3.043-1.191-4.915.001-1.873.398-3.506 1.19-4.9a8.116 8.116 0 0 1 3.268-3.203 9.779 9.779 0 0 1 4.686-1.11 9.877 9.877 0 0 1 4.705 1.101v.01Zm-7.35 2.778a4.811 4.811 0 0 0-1.944 2 6.889 6.889 0 0 0-.735 3.316c0 1.333.245 2.444.735 3.333a4.836 4.836 0 0 0 1.945 2 5.7 5.7 0 0 0 5.29 0 4.848 4.848 0 0 0 1.945-2c.49-.889.734-2 .734-3.333 0-1.334-.245-2.439-.734-3.316a4.824 4.824 0 0 0-1.944-2 5.682 5.682 0 0 0-5.291 0Zm35.72-10.444a2.413 2.413 0 0 1 1.732-.62 2.471 2.471 0 0 1 1.749.62c.439.4.682.972.666 1.566a1.95 1.95 0 0 1-.666 1.536 2.547 2.547 0 0 1-1.75.589c-.63.03-1.249-.18-1.73-.59a1.964 1.964 0 0 1-.653-1.535 2.067 2.067 0 0 1 .653-1.584v.018Zm3.594 6.793v18h-3.724v-18h3.724Zm15.173 1.389c1.275 1.077 2.053 2.52 2.336 4.329h-3.529a3.8 3.8 0 0 0-1.258-2.37c-.684-.6-1.595-.888-2.726-.888-.938 0-1.66.222-2.174.667a2.283 2.283 0 0 0-.766 1.813c-.023.516.18 1.016.555 1.371.401.367.874.645 1.389.818.777.257 1.567.476 2.367.653a23.65 23.65 0 0 1 3.284.947c.839.328 1.58.863 2.156 1.555.592.709.889 1.672.889 2.89a4.5 4.5 0 0 1-1.716 3.657c-1.142.938-2.683 1.406-4.622 1.405-2.242 0-4.054-.523-5.438-1.567-1.384-1.045-2.214-2.514-2.491-4.407h3.627a3.42 3.42 0 0 0 1.306 2.385c.762.611 1.763.917 3.005.915.889 0 1.591-.234 2.106-.702.505-.45.787-1.101.769-1.778a1.967 1.967 0 0 0-.589-1.504 4.091 4.091 0 0 0-1.468-.865c-.793-.261-1.6-.474-2.418-.638a26.723 26.723 0 0 1-3.185-.913 4.96 4.96 0 0 1-2.091-1.486c-.578-.688-.866-1.619-.864-2.794a4.585 4.585 0 0 1 1.713-3.706c1.145-.95 2.73-1.424 4.753-1.423 2.112 0 3.805.54 5.08 1.62v.016Zm-71.228 7.02a8.633 8.633 0 0 0-1.063-4.262 7.622 7.622 0 0 0-3.037-3.007 10.242 10.242 0 0 0-9.245.018 7.896 7.896 0 0 0-3.153 3.2c-.762 1.392-1.142 3.022-1.142 4.889 0 1.896.38 3.54 1.142 4.933a7.895 7.895 0 0 0 3.147 3.193 9.402 9.402 0 0 0 4.622 1.111 9.735 9.735 0 0 0 4.082-.833 7.642 7.642 0 0 0 4.475-5.667H38.64a3.911 3.911 0 0 1-1.584 2.516c-.92.65-2.028.982-3.154.947a5.02 5.02 0 0 1-3.555-1.334c-.957-.889-1.47-2.26-1.536-4.115h13.851a8.68 8.68 0 0 0 .134-1.607v.018Zm-12.38-4.051a5.231 5.231 0 0 1 3.657-1.334 5.635 5.635 0 0 1 2.532.572 4.19 4.19 0 0 1 1.828 1.764c.354.657.557 1.384.594 2.129H28.896c.195-1.353.702-2.402 1.52-3.149v.018Zm58.92-2.578c1.265 1.356 1.898 3.288 1.9 5.798v10.515H87.5V21.37c0-1.616-.415-2.866-1.244-3.75-.83-.885-1.966-1.33-3.407-1.334-1.482 0-2.672.475-3.571 1.424-.9.95-1.344 2.343-1.334 4.178v9.598h-3.733V13.443h3.734v3.962a6.065 6.065 0 0 1 2.424-3.145 7.021 7.021 0 0 1 3.931-1.11c2.096-.002 3.775.674 5.036 2.028v.018Z" clip-rule="evenodd"/></g><defs><clipPath id="a"><path fill="#fff" d="M4 6h114v26H4z"/></clipPath></defs></svg>