<svg xmlns="http://www.w3.org/2000/svg" width="112" height="36" fill="none"><path fill="#fff" d="M0 22.24C0 14.116 5.252 8.429 12.76 8.429c5.056 0 9.179 2.64 10.847 6.702.197.355.246.762.246 1.168 0 .863-.687 1.523-1.473 1.523h-.098a1.643 1.643 0 0 1-1.57-1.218c-1.276-3.3-4.221-5.18-7.902-5.18-5.595 0-9.57 4.418-9.57 10.816 0 6.347 3.877 10.764 9.52 10.764 3.682 0 6.48-1.828 7.952-5.687.196-.71.834-1.218 1.521-1.218.884 0 1.57.71 1.57 1.625v.05c0 .356-.048.711-.196 1.067C22.086 33.207 18.012 36 12.761 36 5.202 36 0 30.364 0 22.24ZM42.65 33.766c0 1.117-.589 1.828-1.62 1.828-1.03 0-1.57-.711-1.57-1.828V1.879C39.46.71 40.05 0 41.08 0c1.03 0 1.57.66 1.57 1.879v7.26h5.546c.982 0 1.57.56 1.57 1.473 0 .914-.588 1.473-1.57 1.473H42.65v21.68ZM67.534 10.917c0 .863-.638 1.574-1.473 1.574h-.147c-.442 0-.834-.152-1.178-.355a5.028 5.028 0 0 0-2.601-.56c-3.436 0-5.644 3.098-5.644 7.008v15.182c0 1.168-.54 1.828-1.57 1.828-1.031 0-1.62-.66-1.62-1.828V10.714c0-1.168.589-1.879 1.62-1.879 1.03 0 1.57.66 1.57 1.879v.66c1.423-1.93 3.68-2.996 6.037-2.945a7.96 7.96 0 0 1 4.171 1.015c.54.305.835.863.835 1.473ZM70.822 10.714c0-1.168.59-1.879 1.62-1.879 1.03 0 1.57.66 1.57 1.879v23.052c0 1.117-.589 1.828-1.62 1.828-1.03 0-1.57-.711-1.57-1.828V10.714ZM29.546 10.714c0-1.168.589-1.879 1.62-1.879 1.03 0 1.57.66 1.57 1.879v23.052c0 1.117-.589 1.828-1.62 1.828-1.03 0-1.57-.711-1.57-1.828V10.714ZM31.166 5.28c1.41 0 2.552-1.181 2.552-2.64 0-1.458-1.143-2.64-2.552-2.64-1.41 0-2.553 1.182-2.553 2.64 0 1.459 1.143 2.64 2.553 2.64ZM90.847 24.27 82.06 34.935a1.61 1.61 0 0 1-1.276.66c-.834 0-1.521-.66-1.521-1.523 0-.457.147-.864.442-1.168l9.177-10.765-8.834-10.51a1.646 1.646 0 0 1-.54-1.219c0-.863.687-1.574 1.57-1.523h.05c.49 0 .932.254 1.227.66l8.54 10.409 8.54-10.41c.294-.405.736-.66 1.227-.66a1.48 1.48 0 0 1 1.57 1.473v.051c0 .457-.196.914-.54 1.219l-8.834 10.51 9.178 10.765c.294.304.442.761.442 1.168 0 .863-.688 1.574-1.522 1.523a1.61 1.61 0 0 1-1.276-.66L90.847 24.27ZM108.663 32.801h-.933v2.539h-.393v-2.539h-.932v-.304h2.258v.304Zm3.337-.304v2.843h-.344v-1.828l.05-.558-.05.203-.883 2.132h-.294l-.884-2.132-.098-.203.049.558v1.828h-.344v-2.843h.442l.835 2.03.147.356.098-.355.834-2.031H112ZM90.847 5.28c1.41 0 2.552-1.181 2.552-2.64 0-1.458-1.143-2.64-2.552-2.64-1.41 0-2.553 1.182-2.553 2.64 0 1.459 1.143 2.64 2.553 2.64Z"/></svg>