<svg xmlns="http://www.w3.org/2000/svg" width="118" height="36" fill="none"><g clip-path="url(#a)"><path fill="#31773F" d="M34.105 14.828a16.786 16.786 0 0 0-4.83-4.338 16.458 16.458 0 0 0-6.344-2.142 16.766 16.766 0 0 0-6.9.604c-2.336.686-4.486 1.867-6.37 3.46a19.226 19.226 0 0 0-4.724 5.959 20.678 20.678 0 0 0-2.203 7.634 22.014 22.014 0 0 0 .849 8.21c.08.22.133.44.212.66.133.329 0 .686-.292.85a.636.636 0 0 1-.822-.302c-.107-.22-.24-.439-.345-.686-1.327-2.719-2.097-5.712-2.31-8.76a24.298 24.298 0 0 1 1.195-9.254A24.305 24.305 0 0 1 5.919 8.43 23.636 23.636 0 0 1 13.562 2.5 24.427 24.427 0 0 1 23.09.027a24.615 24.615 0 0 1 9.953 1.566 26.441 26.441 0 0 1 8.838 5.574l.053.055c2.203 2.06 2.362 5.574.372 7.853a5.247 5.247 0 0 1-7.59.385 4.51 4.51 0 0 1-.611-.632Z"/><path fill="#fff" d="M22.427 25.036a.822.822 0 0 1-.212.22.522.522 0 0 1-.292.082.591.591 0 0 1-.425-.165c-.16-.11-.345-.22-.557-.357-.266-.137-.531-.275-.797-.357-.928-.275-1.91-.192-2.786.165-.452.22-.876.549-1.168.988a5.393 5.393 0 0 0-.717 1.538 8.68 8.68 0 0 0-.239 2.032c0 .714.08 1.4.266 2.087.159.55.398 1.07.716 1.538.292.412.69.741 1.142.96.477.22.982.33 1.486.33.451.028.902-.055 1.327-.192a3.59 3.59 0 0 0 .85-.44c.185-.137.397-.274.583-.439a.75.75 0 0 1 .478-.192.56.56 0 0 1 .451.22l.69.906a5.36 5.36 0 0 1-.982.934 6.689 6.689 0 0 1-1.141.631c-.425.165-.85.275-1.274.357a7.5 7.5 0 0 1-1.354.11 5.25 5.25 0 0 1-2.23-.467 4.771 4.771 0 0 1-1.777-1.318 6.482 6.482 0 0 1-1.195-2.142c-.557-1.812-.583-3.762-.026-5.574a5.982 5.982 0 0 1 1.168-2.142c.53-.604 1.167-1.098 1.884-1.4a5.984 5.984 0 0 1 2.575-.495 5.468 5.468 0 0 1 2.388.467c.69.302 1.3.742 1.831 1.263l-.663.852ZM25.108 35.773V22.592h1.353a.743.743 0 0 1 .53.137c.107.137.187.33.187.522l.159 1.922a5.956 5.956 0 0 1 1.486-2.06 3.08 3.08 0 0 1 2.097-.741c.265 0 .53.027.796.082.239.055.451.138.637.275l-.16 1.84a.385.385 0 0 1-.397.357c-.186 0-.345-.028-.531-.083a3.489 3.489 0 0 0-.77-.082 3.27 3.27 0 0 0-1.035.165c-.292.11-.584.302-.823.522a3.22 3.22 0 0 0-.637.85c-.212.358-.371.77-.53 1.154v8.265l-2.362.056ZM42.306 35.772c-.186 0-.372-.027-.53-.11a.676.676 0 0 1-.293-.466l-.265-1.181c-.319.302-.637.577-.956.824-.318.247-.637.44-1.008.604a4.89 4.89 0 0 1-1.115.384 7.02 7.02 0 0 1-1.327.138c-.478 0-.956-.055-1.407-.22a3.205 3.205 0 0 1-1.14-.66 3.525 3.525 0 0 1-.77-1.098 4.387 4.387 0 0 1-.293-1.537c0-.522.133-1.044.398-1.483a4.324 4.324 0 0 1 1.328-1.29 8.363 8.363 0 0 1 2.415-.934 16.293 16.293 0 0 1 3.662-.412v-.989a3.57 3.57 0 0 0-.61-2.252c-.451-.521-1.141-.796-1.831-.768-.452 0-.93.055-1.354.22-.318.137-.637.274-.955.466-.266.165-.505.33-.69.467-.186.137-.372.192-.61.22a.783.783 0 0 1-.425-.138 1.156 1.156 0 0 1-.293-.33l-.424-.796a7.887 7.887 0 0 1 2.309-1.565 7.227 7.227 0 0 1 2.734-.521c.663 0 1.3.11 1.91.357a3.97 3.97 0 0 1 1.407 1.015c.398.467.69.989.876 1.566.212.659.292 1.345.292 2.032v8.402l-1.035.055Zm-4.777-1.51c.345 0 .716-.027 1.035-.11.318-.082.61-.192.902-.33.292-.137.557-.329.796-.549.266-.22.505-.466.743-.713v-2.637c-.849.028-1.725.11-2.547.248-.584.082-1.168.274-1.726.494-.371.165-.716.412-.955.741a1.704 1.704 0 0 0-.292.961c0 .302.053.605.16.88.105.219.238.438.424.603.186.165.398.275.637.33.292.055.557.082.823.082ZM57.54 24.624v7.77c-.026.44.106.852.372 1.182.265.274.61.411.982.384.212 0 .398-.027.584-.082.159-.055.292-.11.424-.22.106-.082.213-.137.319-.22a.418.418 0 0 1 .239-.082c.053 0 .132.027.185.055.054.055.107.11.133.165l.69 1.18a4.335 4.335 0 0 1-1.433.88c-.53.219-1.115.301-1.698.301a3.152 3.152 0 0 1-2.363-.878 3.688 3.688 0 0 1-.822-2.554v-7.936h-5.76v11.149h-2.388V24.596l-1.354-.165a1.17 1.17 0 0 1-.478-.192c-.106-.11-.185-.274-.159-.412v-1.016h1.99v-1.208c0-.686.107-1.373.32-2.005.185-.549.503-1.07.901-1.482a4.11 4.11 0 0 1 1.407-.934c.584-.22 1.221-.33 1.831-.33.266 0 .558.028.823.055.266.028.505.11.77.165l-.053 1.236a.34.34 0 0 1-.106.247c-.08.055-.16.11-.24.11-.105.027-.238.027-.344.027h-.451c-.345 0-.69.055-1.035.138a1.642 1.642 0 0 0-.797.494c-.239.247-.424.55-.504.906-.133.44-.186.906-.16 1.373v1.153h5.92l.53-3.981a.664.664 0 0 1 .186-.33c.106-.082.239-.137.372-.11h1.194v4.449h3.636v1.785l-3.663.055Z"/><path fill="#31773F" d="M62.264 22.317h3.106c.239 0 .504.055.716.192.186.11.319.302.372.494l1.3 6.042c.107.466.186.906.266 1.345.08.44.16.851.212 1.29.106-.411.239-.85.372-1.29.132-.44.265-.879.371-1.345l1.62-6.042a.773.773 0 0 1 .37-.494c.187-.137.425-.192.664-.192h1.726c.238 0 .504.055.716.192.186.11.319.302.372.494l1.566 6.042c.106.466.238.906.345 1.345.132.44.239.879.345 1.318.08-.44.159-.851.239-1.29.106-.44.185-.88.318-1.346l1.38-6.041a.835.835 0 0 1 .345-.494c.213-.138.425-.193.664-.193h2.972L78.587 35.8h-3.158a.592.592 0 0 1-.425-.165.978.978 0 0 1-.265-.522l-1.858-6.7-.24-.906c-.079-.302-.132-.577-.211-.879-.054.302-.133.604-.186.906l-.24.907-1.883 6.672a.833.833 0 0 1-.823.687h-3l-4.034-13.483ZM92.574 35.772a1.396 1.396 0 0 1-.823-.164c-.212-.165-.398-.385-.478-.66l-.265-.74c-.318.274-.637.521-.955.74-.292.22-.61.385-.93.55a3.278 3.278 0 0 1-1.034.33c-.398.082-.797.11-1.221.11a5.391 5.391 0 0 1-1.62-.248 3.376 3.376 0 0 1-1.247-.714 3.42 3.42 0 0 1-.796-1.153 4.24 4.24 0 0 1-.265-1.62c0-.522.132-1.016.345-1.483.292-.55.69-1.044 1.22-1.373a8.162 8.162 0 0 1 2.336-1.044c1.221-.302 2.442-.439 3.69-.412v-.576a2.53 2.53 0 0 0-.478-1.73c-.345-.357-.85-.577-1.327-.522-.372 0-.77.055-1.142.165-.265.082-.53.22-.796.357-.239.137-.451.247-.663.357a1.85 1.85 0 0 1-.77.165c-.239 0-.478-.055-.69-.193a1.575 1.575 0 0 1-.451-.494l-.69-1.263a7.654 7.654 0 0 1 2.627-1.593 9.075 9.075 0 0 1 3.079-.521c.716 0 1.46.11 2.123.384a4.65 4.65 0 0 1 1.593 1.098 4.678 4.678 0 0 1 1.008 1.675c.239.687.372 1.4.345 2.142v8.403l-1.725.027Zm-4.485-2.444c.45 0 .902-.082 1.327-.274.424-.22.822-.522 1.14-.879v-1.84c-.636 0-1.273.055-1.91.165-.425.082-.823.22-1.194.385-.24.11-.452.302-.61.521a1.34 1.34 0 0 0-.16.66 1.25 1.25 0 0 0 .371.988c.293.192.664.302 1.036.274ZM96.767 35.772V22.317h2.31c.159 0 .318.027.477.055a.714.714 0 0 1 .319.165c.08.082.159.164.212.302.053.137.08.302.106.44l.212 1.262c.425-.686.956-1.318 1.593-1.812a3.127 3.127 0 0 1 1.937-.66 2.278 2.278 0 0 1 1.434.44l-.505 2.966a.62.62 0 0 1-.212.384c-.106.083-.265.11-.398.11a3.15 3.15 0 0 1-.504-.055c-.239-.055-.478-.055-.717-.055-1.062.028-1.991.687-2.415 1.675v8.238h-3.849ZM112.161 22.125c.796 0 1.619.137 2.362.412.69.274 1.327.686 1.831 1.208.531.549.929 1.208 1.195 1.95.292.823.451 1.702.424 2.608 0 .247 0 .494-.026.741a1.55 1.55 0 0 1-.133.467.424.424 0 0 1-.265.22c-.133.055-.292.082-.425.055h-7.511c.027.906.398 1.785.982 2.444a2.874 2.874 0 0 0 2.07.769 4.14 4.14 0 0 0 1.168-.165c.292-.11.584-.22.876-.384.265-.138.478-.275.69-.385a1.4 1.4 0 0 1 .664-.165c.265-.027.53.11.69.357l1.141 1.428c-.372.44-.823.851-1.301 1.154a7.031 7.031 0 0 1-1.433.714 8.726 8.726 0 0 1-1.46.357c-.451.055-.929.082-1.406.11-.876 0-1.752-.138-2.575-.467a5.97 5.97 0 0 1-2.096-1.373 6.146 6.146 0 0 1-1.407-2.252c-.372-1.016-.531-2.06-.531-3.13 0-.88.159-1.73.451-2.554.584-1.593 1.779-2.884 3.291-3.543.903-.412 1.805-.604 2.734-.576Zm.08 2.773a2.349 2.349 0 0 0-1.752.66 3.49 3.49 0 0 0-.823 1.894h4.857c0-.302-.026-.632-.106-.934a2.361 2.361 0 0 0-.398-.824 1.885 1.885 0 0 0-.717-.576 2.058 2.058 0 0 0-1.061-.22Z"/></g><defs><clipPath id="a"><path fill="#fff" d="M0 0h118v36H0z"/></clipPath></defs></svg>