<svg xmlns="http://www.w3.org/2000/svg" width="114" height="40" fill="none"><g fill="#fff" clip-path="url(#a)"><path d="M91.402 11.81v6.952h9.323c0 .024-.008-6.954 0-6.952-.008-.002 4.57 0 4.618 0 0 0 .016 17.362 0 17.382h-4.618V21.54c0 .024-9.323 0-9.323 0 .008.032 0 7.657 0 7.65h-4.61s.024-17.381 0-17.381h4.61ZM47.597 11.81v2.955h-7.063v14.427h-4.61V14.765h-7.062s.008-2.949 0-2.955c.008.006 18.735 0 18.735 0ZM54.563 14.765l-3.212 7.908h6.424l-3.212-7.908Zm10.97 14.427h-5.138c.008 0-1.51-3.736-1.51-3.736h-8.652s-1.486 3.741-1.502 3.736c0 .005-5.145 0-5.145 0l8.149-17.382c0 .008 5.656 0 5.656 0l8.142 17.382ZM109.002 29.192h4.618V11.81h-4.618v17.382ZM4.998 11.81s-.008 7.003 0 6.952h9.323c0 .024-.016-6.954 0-6.952-.016-.002 4.57 0 4.618 0 0 0 .016 17.362 0 17.382h-4.618V21.54c0 .024-9.323 0-9.323 0 0 .032-.008 7.657 0 7.65H.38S.404 11.81.38 11.81h4.618ZM22.598 29.192h4.61V11.81h-4.61v17.382ZM65.373 24.381a11.217 11.217 0 0 1-.623-3.708c0-1.826.32-3.594 1.198-5.067a7.742 7.742 0 0 1 3.97-3.299c1.59-.6 3.308-.928 5.114-.928 2.07 0 4.026.452 5.824 1.223a5.644 5.644 0 0 1 3.292 4.016c.08.357.135.73.16 1.104h-4.842a4.087 4.087 0 0 0-.248-1.337 3.362 3.362 0 0 0-2.165-2.009 6.792 6.792 0 0 0-2.021-.303 6.74 6.74 0 0 0-2.285.39c-1.183.415-2.101 1.372-2.525 2.553a10.857 10.857 0 0 0-.63 3.657c0 1.065.175 2.089.439 3.052a4.167 4.167 0 0 0 2.524 2.75 7.078 7.078 0 0 0 2.477.454c.743 0 1.454-.111 2.133-.328a3.343 3.343 0 0 0 2.021-1.808 4.632 4.632 0 0 0 .376-1.865h4.865a9.923 9.923 0 0 1-.232 1.65c-.423 1.72-1.63 3.166-3.227 3.835a15.377 15.377 0 0 1-5.936 1.208c-1.63 0-3.212-.255-4.682-.718-2.253-.706-4.202-2.324-4.977-4.522Z"/></g><defs><clipPath id="a"><path fill="#fff" d="M0 11h114v19H0z"/></clipPath></defs></svg>