<svg xmlns="http://www.w3.org/2000/svg" width="88" height="40" fill="none"><g fill="#fff" clip-path="url(#a)"><path d="M0 7v25.505h14.829v-2.668H3.271V7H0ZM29.399 16.799h-.039a6.164 6.164 0 0 0-2.248-2.789 6.138 6.138 0 0 0-3.416-1.062c-4.525 0-8.14 4.08-8.14 10.064 0 5.453 2.966 9.988 7.909 9.988 2.739 0 4.677-1.53 6.007-3.772h.034v3.277h2.813V13.443h-2.92v3.356Zm-5.436 13.686c-3.65 0-5.438-3.089-5.438-7.473 0-4.308 1.78-7.473 5.438-7.473 3.688 0 5.474 3.66 5.474 7.473 0 3.813-1.526 7.473-5.474 7.473ZM40.896 7h-2.928v6.443h-3.536v2.295h3.536v12.003c0 3.01 1.483 4.764 4.716 4.764h3.65v-2.479h-3.157c-1.712 0-2.289-.765-2.289-2.515v-11.78h5.438v-2.296h-5.43V7ZM52.148 13.442h-2.927v19.063h2.927V13.442ZM52.148 7h-2.927v3.507h2.927V7ZM68.193 13.442l-5.17 15.821h-.077l-5.248-15.82H54.43L61.5 32.504h2.89l7.07-19.063h-3.268ZM88.008 22.974c0-5.489-3.23-10.026-8.287-10.026-4.686 0-8.246 4.537-8.246 10.026 0 5.833 2.927 10.026 8.477 10.026 3.994 0 6.73-2.477 7.984-5.945l-2.775-.65c-.987 2.631-2.393 4.08-5.209 4.08-3.154 0-5.435-2.744-5.626-6.978h13.682v-.533Zm-13.58-1.64c.417-3.316 2.243-5.866 5.285-5.866 3.042 0 4.637 1.946 5.283 5.866H74.428Z"/></g><defs><clipPath id="a"><path fill="#fff" d="M0 7h88v26H0z"/></clipPath></defs></svg>