<svg xmlns="http://www.w3.org/2000/svg" width="120" height="36" fill="none"><path fill="#01A8E4" d="M48.194 16.548c0-1.016-.242-1.935-.726-2.71-.436-.773-1.162-1.16-2.178-1.16-1.113 0-1.838.386-2.274 1.064-.484.726-.677 1.597-.677 2.613s.193 1.935.629 2.758c.387.823 1.161 1.258 2.322 1.258.871 0 1.549-.339 2.081-.968.532-.677.822-1.596.822-2.855Zm7.548-3.822c0 .435-.097.774-.339 1.064-.242.29-.532.387-.822.387-.388 0-.775-.145-1.162-.483-.048-.049-.145-.097-.29-.242a4.445 4.445 0 0 0-.387-.242c-.097-.097-.194-.097-.29-.097-.387 0-.678.097-.92.387.436.484.726 1.016.968 1.5.242.435.339 1.064.339 1.79 0 1.017-.242 1.839-.678 2.468-.435.678-1.016 1.161-1.79 1.549-.726.338-1.452.58-2.226.774-.726.145-1.693.29-2.903.435-2.903.387-4.355.968-4.355 1.79 0 .34.242.581.678.726.435.145 1.064.194 1.935.194h2.806c.871 0 1.742.048 2.565.145.822.097 1.694.339 2.516.629.871.339 1.597.871 2.226 1.645.58.726.87 1.694.87 2.903 0 .871-.241 1.79-.822 2.71-.532.871-1.5 1.645-2.903 2.274-1.403.63-3.29.968-5.661.968-1.887 0-3.726-.242-5.565-.726-1.79-.484-2.71-1.597-2.71-3.29 0-.63.146-1.161.533-1.645.339-.484.87-.726 1.597-.726a2.8 2.8 0 0 1 1.355.339c-.242.435-.388.87-.388 1.354 0 .823.484 1.5 1.404 2.13.919.58 2.37.87 4.258.87 1.887 0 3.435-.29 4.5-.822 1.112-.532 1.693-1.258 1.693-2.178 0-.629-.242-1.113-.726-1.403-.483-.338-1.16-.532-2.032-.629-.87-.097-2.274-.145-4.113-.193-2.274 0-4.016-.242-5.322-.726-1.307-.484-1.936-1.452-1.936-2.952 0-1.306.484-2.226 1.452-2.806.92-.58 2.129-1.016 3.532-1.307-3.29-.629-4.935-2.177-4.935-4.645 0-.774.193-1.597.629-2.468l.048-.096a.523.523 0 0 0 .145-.34c0-.193-.097-.338-.435-.338h-.823c-.532.049-.92.194-1.21.387-.338.194-.58.533-.822.92a71.105 71.105 0 0 0-1.307 2.516l-5.37 11.177c-1.21 2.468-2.033 4.113-2.468 4.936-.484.822-.968 1.451-1.5 1.935C24 35.758 23.323 36 22.5 36c-.58 0-1.064-.194-1.452-.532-.435-.339-.629-.775-.629-1.307 0-.726.242-1.258.726-1.596.532-.34 1.21-.63 1.984-.871 1.113-.34 1.935-.92 2.516-1.742.58-.871 1.113-1.79 1.5-2.807L20.13 14.807c-.339-.63-.629-.968-.92-1.162-.29-.145-.628-.242-1.112-.242V11.71h8.951v1.693h-.58c-.823 0-1.258.194-1.258.63 0 .241.145.628.483 1.257l3.92 6.823 2.903-5.855c.387-.822.58-1.403.58-1.693 0-.388-.193-.678-.531-.871-.388-.194-.775-.29-1.307-.29V11.71h10.065c1.064-.387 2.322-.63 3.87-.63 2.468 0 4.307.581 5.614 1.694.774-1.064 1.79-1.645 3-1.645.58 0 1.112.145 1.451.484.339.29.484.677.484 1.113ZM114 11.71v1.693c.532 0 .919.097 1.306.29.339.194.533.484.533.872 0 .29-.194.87-.629 1.693l-2.855 5.855-3.92-6.823c-.338-.629-.483-1.016-.483-1.258 0-.435.387-.629 1.258-.629h.58V11.71H96.58V7.113C96.63 2.66 92.662 0 88.598 0c-5.13 0-7.742 2.323-7.742 4.548 0 .146 0 .242.048.34.097.531.339.967.774 1.402.533.533 1.162.775 1.887.775.726 0 1.355-.242 1.888-.775.532-.532.774-1.161.774-1.887 0-.532-.049-.774.338-1.355C87 2.323 88.306 1.79 89.71 1.79c2.37 0 5.37 1.355 5.37 4.549 0 .193 0 .338-.048.532-.096.823-.435 1.645-.92 2.37a5.348 5.348 0 0 1-2.08 1.791c-.822.436-1.838.678-3 .678v1.693h2.758v8.661c0 .92.097 1.742.242 2.468s.58 1.404 1.258 1.984c.726.58 1.79.871 3.242.871 1.21 0 2.226-.29 3.097-.87.919-.63 1.694-1.598 2.371-3l-1.597-.727c-.387.678-.726 1.258-1.113 1.742-.387.436-.87.678-1.451.678-.58 0-.92-.242-1.065-.726-.145-.436-.193-1.21-.193-2.274v-8.807h4.258c.484 0 .822.097 1.113.242.29.194.58.532.919 1.162l7.016 12.338a17.153 17.153 0 0 1-1.5 2.807c-.581.822-1.403 1.403-2.516 1.741-.774.242-1.452.533-1.984.872-.484.338-.774.87-.774 1.596 0 .532.242.968.629 1.307.435.338.919.532 1.5.532.823 0 1.5-.242 2.081-.726.532-.484 1.016-1.113 1.451-1.935.436-.823 1.258-2.468 2.468-4.936l5.419-11.177a70.604 70.604 0 0 1 1.307-2.516c.242-.387.484-.726.774-.92.339-.193.726-.29 1.258-.387V11.71h-6ZM86.226 24.532c-.242-.387-.387-1.113-.387-2.129V11.081l-7.549 1.596v1.694c.92 0 1.549.097 1.936.242s.629.387.726.726c.096.29.145.822.145 1.597v5.467c0 .678-.049 1.21-.097 1.549-.097.387-.29.677-.629.87-.339.194-.823.29-1.548.29h-.581c-1.79 0-2.516-.193-2.758-.58-.29-.387-.436-1.113-.436-2.129V16.21c0-1.113-.242-2.033-.725-2.807-.484-.774-1.113-1.355-1.984-1.742-.823-.387-1.79-.58-2.855-.58-1.258 0-2.274.29-3.145.822-.823.484-1.645 1.162-2.42 1.984V13.5c0-.097.049-.242.049-.435 0-.581-.097-1.258-.194-1.984l-7.161 1.596v1.694c1.113 0 1.887.145 2.177.387.339.29.533.823.533 1.694v5.951c0 .774-.097 1.355-.194 1.742a1.28 1.28 0 0 1-.774.726c-.387.145-.968.242-1.742.242v1.694h9.726v-1.694c-.92 0-1.549-.194-1.839-.532-.242-.387-.387-1.017-.387-1.984v-4.162c0-1.258.29-2.419.92-3.387.628-1.016 1.596-1.5 2.903-1.5.967 0 1.596.29 1.887.92.29.58.435 1.451.435 2.468v5.225c0 .823 0 1.452-.097 1.79a1.112 1.112 0 0 1-.58.872c-.29.193-.823.29-1.549.29v1.694h20.274v-1.694c-1.112 0-1.79-.194-2.08-.58Zm-69.436-8.42c.678.969 1.065 2.13 1.065 3.533 0 .774-.194 1.597-.484 2.42-.339.87-.871 1.693-1.548 2.516-.63.774-1.5 1.451-2.517 1.935-1.016.484-2.225.726-3.532.726-1.355 0-2.661-.29-3.968-.871-1.306-.58-2.419-1.403-3.338-2.564-.387.919-.678 1.741-.774 2.516H0v-8.517h1.694c.29 1.21.725 2.371 1.306 3.436.532 1.064 1.258 2.032 2.274 2.806 1.016.775 2.226 1.162 3.63 1.162 1.257 0 2.273-.339 3.048-1.017.774-.725 1.113-1.548 1.113-2.612 0-.581-.097-1.113-.34-1.549-.241-.435-.58-.822-1.015-1.21-.436-.338-1.065-.677-1.839-1.112a45.53 45.53 0 0 0-2.613-1.258c-1.5-.678-2.758-1.404-3.726-2.13-.967-.725-1.693-1.451-2.226-2.128-.483-.678-.822-1.307-1.016-1.936A6.388 6.388 0 0 1 0 8.371c0-1.113.29-2.177.92-3.29.58-1.065 1.451-1.984 2.66-2.662 1.162-.677 2.468-1.016 4.017-1.016 1.161 0 2.274.242 3.338.774 1.065.484 1.984 1.21 2.758 2.13.194-.533.436-1.259.63-2.178h1.693v6.968h-1.693c-1.258-3.774-3.388-5.71-6.436-5.71-1.113 0-2.032.29-2.661.871-.678.58-1.016 1.355-1.016 2.274 0 .726.193 1.355.629 1.887.387.533.967 1.016 1.645 1.355.677.387 1.79.968 3.29 1.645 1.887.871 3.29 1.646 4.355 2.274a9.754 9.754 0 0 1 2.661 2.42Z"/></svg>