<svg xmlns="http://www.w3.org/2000/svg" width="122" height="40" fill="none"><g fill="#B1181E" clip-path="url(#a)"><path d="M44.487 14.98c0-.399.161-.781.448-1.063.287-.283.676-.441 1.082-.441h6.628c.595 0 1.171.206 1.629.58a2.5 2.5 0 0 1 .875 1.47 2.47 2.47 0 0 1-.281 1.681c-.291.511-.754.906-1.31 1.116l-5.135 1.862a3.566 3.566 0 0 0-1.698 1.218 3.466 3.466 0 0 0-.175 3.947c.377.6.928 1.073 1.583 1.36l9.61 4.29v-3.291l-8.407-3.656a.609.609 0 0 1-.27-.233.594.594 0 0 1 .03-.676.612.612 0 0 1 .29-.21l5.268-1.802a5.582 5.582 0 0 0 2.884-2.454c.64-1.124.86-2.433.621-3.7a5.498 5.498 0 0 0-1.928-3.236 5.667 5.667 0 0 0-3.586-1.275h-6.628a4.629 4.629 0 0 0-3.245 1.322 4.475 4.475 0 0 0-1.343 3.19v15.545h3.059V14.98ZM61.342 10.468h3.06v20.056h-3.06V10.468ZM19.138 10.468l-5.476 16.7a.516.516 0 0 1-.969 0l-5.475-16.7H4l5.783 17.63c.233.705.687 1.32 1.297 1.755.61.436 1.344.67 2.098.67.753 0 1.487-.234 2.097-.67a3.514 3.514 0 0 0 1.297-1.755l5.783-17.63h-3.217ZM82.785 30.524l5.475-16.7a.516.516 0 0 1 .97 0l5.476 16.7h3.218l-5.784-17.63a3.513 3.513 0 0 0-1.296-1.755 3.61 3.61 0 0 0-2.098-.67 3.61 3.61 0 0 0-2.097.67 3.513 3.513 0 0 0-1.297 1.754L79.57 30.525l3.216-.001ZM28.605 13.476h9.687v-3.008h-9.687c-1.352 0-2.649.528-3.605 1.469a4.973 4.973 0 0 0-1.493 3.545V25.51c0 1.33.537 2.606 1.493 3.546a5.143 5.143 0 0 0 3.605 1.469h9.687v-3.009h-9.687a2.06 2.06 0 0 1-1.444-.588 1.991 1.991 0 0 1-.598-1.42v-3.533h9.69v-2.958h-9.687v-3.535c0-.532.216-1.041.598-1.417a2.06 2.06 0 0 1 1.441-.589ZM81.838 10.468H66.95v3.008h5.915v17.048h3.059V13.476h5.914v-3.008ZM109.286 30.524a5.914 5.914 0 0 0 4.107-1.71 5.72 5.72 0 0 0 1.696-4.056 5.72 5.72 0 0 0-1.696-4.057 5.914 5.914 0 0 0-4.107-1.71h-5.099c-.744 0-1.457-.29-1.983-.807a2.734 2.734 0 0 1-.821-1.95c0-.732.295-1.433.821-1.95a2.828 2.828 0 0 1 1.983-.808h9.942v-3.008h-9.942a5.91 5.91 0 0 0-4.107 1.71 5.717 5.717 0 0 0-1.697 4.056c0 1.52.61 2.977 1.697 4.057a5.91 5.91 0 0 0 4.107 1.71h5.099c.743 0 1.457.29 1.983.807.526.517.821 1.219.821 1.95 0 .732-.295 1.433-.821 1.95a2.83 2.83 0 0 1-1.983.808h-9.943v3.009h9.943ZM115.857 10.468h-.265V9.243h-.443V9h1.154v.243h-.446v1.225Zm1.404-.36.094-.26.336-.848H118v1.468h-.252V9.75l.005-.25-.083.207-.298.76h-.222l-.298-.76-.083-.207.005.25v.718h-.255V9h.31l.337.848.095.26Z"/></g><defs><clipPath id="a"><path fill="#fff" d="M4 9h114v22H4z"/></clipPath></defs></svg>